# xmcd CD database file
#
# Track frame offsets:
#	150
#	39313
#	61239
#	89234
#	121560
#	161615
#	181494
#	214725
#	227707
#
# Disc length: 3542 seconds
#
# Revision: 0
# Processed by: cddbd v1.5.2PL0 Copyright (c) Steve Scherf et al.
# Submitted via: CDex 1.51
#
DISCID=730dd409
DTITLE=Zia - Many And Great Are Thy Things
DYEAR=2010
DGENRE=Jazz
TTITLE0=India
TTITLE1=I've Got A Home Ina That Rock
TTITLE2=Bajuschki Baju
TTITLE3=Many And Great, Oh God, Are Thy Things
TTITLE4=Gwerc'hes Diwar Ho Tron
TTITLE5=Hine Matov Uma Naim
TTITLE6=Weisst Du, Wieviel Sternlein Stehen
TTITLE7=Introduktion Psalm 34
TTITLE8=Psalm 34
EXTD=YEAR: 2010
EXTT0=
EXTT1=
EXTT2=
EXTT3=
EXTT4=
EXTT5=
EXTT6=
EXTT7=
EXTT8=
PLAYORDER=
